<svg width="482" height="66" viewBox="0 0 482 66" fill="none" xmlns="http://www.w3.org/2000/svg">
<path d="M2.41568 43.3427C2.81427 43.3306 3.22494 43.3186 3.76847 43.3186C3.8047 43.3186 3.84094 43.3186 3.87718 43.3186C3.2491 39.079 5.94259 36.156 8.88973 35.1414C9.45742 34.9482 10.0372 34.8032 10.5928 34.7187V31.1797C10.5928 30.1772 9.77146 29.3558 8.76895 29.3558H3.62353C2.62102 29.3558 1.79968 30.1772 1.79968 31.1797V43.4031C1.99294 43.379 2.19827 43.3548 2.41568 43.3427Z" fill="white"/>
<path d="M17.3688 36.7358C18.6491 35.6608 20.2072 34.9603 21.8499 34.7308V27.5924C21.8499 26.5899 21.0286 25.7686 20.0261 25.7686H14.8806C13.8781 25.7686 13.0568 26.5899 13.0568 27.5924V34.7187C14.5787 34.9482 16.0281 35.6246 17.3688 36.7358Z" fill="white"/>
<path d="M27.4664 35.9265C30.0753 37.5813 31.3436 40.4197 30.9087 43.3306H31.0657C31.3798 43.3306 31.7059 43.3306 32.0199 43.3306C32.3944 43.3306 32.7567 43.3789 33.0949 43.4514V23.8239C33.0949 22.8213 32.2736 22 31.2711 22H26.1257C25.1232 22 24.3018 22.8213 24.3018 23.8239V34.7428C25.4251 34.9119 26.5122 35.3105 27.4664 35.9265Z" fill="white"/>
<path d="M3.92549 65.2892C3.88926 65.265 3.85302 65.2408 3.80471 65.2288C2.50024 64.9026 1.73929 63.9605 1.72722 62.6077C1.71514 61.0979 1.72722 62.3782 1.72722 60.8684C1.72722 58.7788 1.72722 56.6772 1.72722 54.5876C1.72722 54.4547 1.72722 54.3219 1.72722 54.1649C6.37742 54.1649 11.5712 54.1649 16.2214 54.1649C16.2214 54.2977 16.2214 54.4064 16.2214 54.5151C16.2214 58.9238 16.2214 60.5665 16.2214 64.9872C16.2214 65.0838 16.2093 65.1925 16.1972 65.2892C12.3079 65.2892 7.82683 65.2892 3.92549 65.2892Z" fill="white"/>
<path d="M18.6854 65.2892C18.6733 65.1684 18.6612 65.0476 18.6612 64.9147C18.6612 60.5423 18.6612 58.9479 18.6612 54.5876C18.6612 54.4547 18.6612 54.3219 18.6612 54.1649C23.2993 54.1649 28.3602 54.1649 33.0104 54.1649C33.0225 54.2977 33.0345 54.4306 33.0345 54.5514C33.0345 58.1024 33.0345 58.8875 33.0345 62.4386C33.0345 63.9605 32.3702 64.8302 30.8967 65.2408C30.8725 65.2408 30.8604 65.265 30.8483 65.2771C26.9349 65.2891 22.5867 65.2892 18.6854 65.2892Z" fill="white"/>
<path d="M34.7738 47.4856C34.7497 45.8429 33.6747 44.7679 32.02 44.7559C31.1624 44.7559 30.3048 44.7559 29.4352 44.7559C29.3144 44.7559 29.1936 44.7438 29.0487 44.7438C29.097 44.623 29.1211 44.5384 29.1453 44.4539C30.1961 41.6638 29.2178 38.7287 26.7054 37.1343C23.8549 35.3225 20.0502 35.8782 17.6345 38.4509C17.55 38.5354 17.5017 38.6562 17.4413 38.7649C17.3446 38.6683 17.3326 38.6683 17.3205 38.6562C17.248 38.5837 17.1876 38.5113 17.1152 38.4388C14.9048 36.2647 12.3321 35.4916 9.34872 36.5183C6.84848 37.3759 4.78306 39.8157 5.29036 43.1736C5.37491 43.705 5.53193 44.2244 5.67687 44.78C5.55609 44.78 5.4353 44.78 5.3266 44.78C4.3724 44.78 3.4182 44.7679 2.47608 44.7921C1.49773 44.8283 0.7851 45.3115 0.31404 46.157C0.169099 46.4106 0.108706 46.7005 0 46.9662C0 47.1474 0 47.3165 0 47.4977C0 48.9109 0 50.312 0 51.7251C11.5832 51.7251 34.7859 51.7251 34.7859 51.7251L34.7738 47.4856ZM20.3039 40.6854C21.4151 39.5863 23.0819 39.236 24.4347 39.8278C25.6667 40.3714 26.2585 41.4947 26.029 42.7991C25.8962 43.5118 25.4734 44.007 24.8212 44.2244C24.181 44.4297 23.5167 44.6109 22.8524 44.6592C21.7412 44.7438 20.6179 44.7317 19.4946 44.7559C19.398 44.7559 19.2893 44.7438 19.1685 44.7438C19.0236 43.2219 19.1564 41.8208 20.3039 40.6854ZM9.78354 40.1539C11.233 39.091 13.4312 39.4534 14.6753 40.9149C15.2672 41.6154 15.5933 42.4126 15.6295 43.3306C15.6416 43.7896 15.6295 44.2486 15.6295 44.7679C13.9627 44.7438 12.3442 44.8404 10.7498 44.5022C10.6773 44.4901 10.5928 44.466 10.5203 44.4418C9.65068 44.1761 8.91389 43.7896 8.73272 42.7629C8.55154 41.6638 8.90182 40.7941 9.78354 40.1539Z" fill="white"/>
<path d="M79.1201 48.9619V40.3242H98.9443V58.0244C95.1494 60.611 91.7887 62.3763 88.8623 63.3203C85.9548 64.2454 82.4997 64.708 78.4971 64.708C73.5693 64.708 69.5479 63.8678 66.4326 62.1875C63.3363 60.5072 60.929 58.0055 59.2109 54.6826C57.5117 51.3597 56.6621 47.5459 56.6621 43.2412C56.6621 38.71 57.5967 34.7734 59.4658 31.4316C61.335 28.071 64.0726 25.5221 67.6787 23.7852C70.4919 22.4447 74.2773 21.7744 79.0352 21.7744C83.623 21.7744 87.0498 22.1898 89.3154 23.0205C91.5999 23.8512 93.488 25.1445 94.9795 26.9004C96.4899 28.6374 97.6227 30.8464 98.3779 33.5273L86.002 35.7363C85.4922 34.1693 84.6237 32.9704 83.3965 32.1396C82.1882 31.3089 80.64 30.8936 78.752 30.8936C75.9388 30.8936 73.6921 31.8753 72.0117 33.8389C70.3503 35.7835 69.5195 38.8704 69.5195 43.0996C69.5195 47.5931 70.3597 50.8027 72.04 52.7285C73.7393 54.6543 76.0993 55.6172 79.1201 55.6172C80.555 55.6172 81.9238 55.4095 83.2266 54.9941C84.5293 54.5788 86.0208 53.8708 87.7012 52.8701V48.9619H79.1201ZM107.072 22.4824H119.93V64H107.072V22.4824ZM129.219 22.4824H160.938V31.4033H142.104V38.6533H158.19V47.0361H142.104V64H129.219V22.4824ZM164.931 22.4824H203.928V32.7344H190.844V64H178.015V32.7344H164.931V22.4824ZM210.271 22.4824H223.129V64H210.271V22.4824ZM232.446 22.4824H244.426L260.059 45.4502V22.4824H272.151V64H260.059L244.511 41.2021V64H232.446V22.4824ZM280.846 22.4824H299.905C303.662 22.4824 306.693 22.9922 308.996 24.0117C311.318 25.0312 313.235 26.4945 314.745 28.4014C316.256 30.3083 317.351 32.5267 318.03 35.0566C318.71 37.5866 319.05 40.2676 319.05 43.0996C319.05 47.5365 318.54 50.9821 317.521 53.4365C316.52 55.8721 315.123 57.9206 313.329 59.582C311.535 61.2246 309.61 62.3197 307.552 62.8672C304.739 63.6224 302.19 64 299.905 64H280.846V22.4824ZM293.675 31.8848V54.5693H296.818C299.499 54.5693 301.406 54.2767 302.539 53.6914C303.672 53.0872 304.559 52.0488 305.201 50.5762C305.843 49.0846 306.164 46.6774 306.164 43.3545C306.164 38.9554 305.447 35.944 304.012 34.3203C302.577 32.6966 300.198 31.8848 296.875 31.8848H293.675ZM325.79 22.4824H360.171V31.3467H338.647V37.9453H358.613V46.4131H338.647V54.5977H360.794V64H325.79V22.4824ZM364.872 22.4824H379.004L386.367 35.2549L393.504 22.4824H407.494L394.58 42.5898L408.712 64H394.297L386.112 50.6611L377.899 64H363.569L377.899 42.3633L364.872 22.4824Z" fill="white"/>
</svg>
